<?xml version="1.0" encoding="UTF-8" standalone="no"?>
<!-- Created with Inkscape (http://www.inkscape.org/) -->

<svg
   xmlns:dc="http://purl.org/dc/elements/1.1/"
   xmlns:cc="http://creativecommons.org/ns#"
   xmlns:rdf="http://www.w3.org/1999/02/22-rdf-syntax-ns#"
   xmlns:svg="http://www.w3.org/2000/svg"
   xmlns="http://www.w3.org/2000/svg"
   xmlns:sodipodi="http://sodipodi.sourceforge.net/DTD/sodipodi-0.dtd"
   xmlns:inkscape="http://www.inkscape.org/namespaces/inkscape"
   id="svg2"
   version="1.1"
   inkscape:version="0.48.4 r9939"
   width="739.45886"
   height="481.25"
   xml:space="preserve"
   sodipodi:docname="occlussionDetector.svg"><metadata
     id="metadata8"><rdf:RDF><cc:Work
         rdf:about=""><dc:format>image/svg+xml</dc:format><dc:type
           rdf:resource="http://purl.org/dc/dcmitype/StillImage" /><dc:title></dc:title></cc:Work></rdf:RDF></metadata><defs
     id="defs6" /><sodipodi:namedview
     pagecolor="#ffffff"
     bordercolor="#666666"
     borderopacity="1"
     objecttolerance="10"
     gridtolerance="10"
     guidetolerance="10"
     inkscape:pageopacity="0"
     inkscape:pageshadow="2"
     inkscape:window-width="1680"
     inkscape:window-height="1026"
     id="namedview4"
     showgrid="false"
     inkscape:zoom="0.64183539"
     inkscape:cx="-148.06924"
     inkscape:cy="435.18709"
     inkscape:window-x="0"
     inkscape:window-y="24"
     inkscape:window-maximized="1"
     inkscape:current-layer="g10"
     fit-margin-top="0"
     fit-margin-left="0"
     fit-margin-right="0"
     fit-margin-bottom="0" /><g
     id="g10"
     inkscape:groupmode="layer"
     inkscape:label="classes_No_Name"
     transform="matrix(1.25,0,0,-1.25,-210.54113,531.875)"><path
       inkscape:connector-curvature="0"
       id="path174"
       style="fill:none;stroke:#000000;stroke-width:1;stroke-linecap:butt;stroke-linejoin:round;stroke-miterlimit:10;stroke-opacity:1;stroke-dasharray:none"
       d="m 460.5,425 299,0 0,-384 -299,0 0,384 z" /><text
       id="text176"
       transform="scale(1,-1)"
       x="527"
       y="-409.80078"><tspan
         id="tspan178"
         sodipodi:role="line"
         y="-409.80078"
         x="527 534.50415 541.25226 548.00037 554.00647 558.50055 565.24866 569.00073 575.74884 581.75494 585.50702 590.75708 600.50128 606.50739 612.49951 616.25159 622.99969 628.24976 632.00183 638.76392 645.51208 655.25623 661.26233 665.0144 671.00653 677.01263 680.76465 687.51282"
         style="font-size:14.00024414px;font-variant:normal;writing-mode:lr-tb;fill:#000000;fill-opacity:1;fill-rule:nonzero;stroke:none;font-family:Nimbus Roman No9 L;-inkscape-font-specification:NimbusRomNo9L-Regu">SuperpixelsOcclusionDetector</tspan></text>
<path
       inkscape:connector-curvature="0"
       id="path180"
       style="fill:none;stroke:#000000;stroke-width:1;stroke-linecap:butt;stroke-linejoin:round;stroke-miterlimit:10;stroke-opacity:1;stroke-dasharray:none"
       d="m 460.5,402 299,0" /><text
       id="text182"
       transform="scale(1,-1)"
       x="468.5"
       y="-386.80078"><tspan
         id="tspan184"
         sodipodi:role="line"
         y="-386.80078"
         x="468.5 474.5061 481.25421 492.49643 499.25854 503.75262 509.75873 515.00879 520.25891 523.99695 530.75909 537.5072 551.00342 554.75549 561.5036 565.25568"
         style="font-size:14.00024414px;font-variant:normal;writing-mode:lr-tb;fill:#000000;fill-opacity:1;fill-rule:nonzero;stroke:none;font-family:Nimbus Roman No9 L;-inkscape-font-specification:NimbusRomNo9L-Regu">compressionWidth</tspan><tspan
         id="tspan186"
         sodipodi:role="line"
         y="-371.80078"
         x="468.5 472.99408 477.50217 483.49426 494.75046"
         style="font-size:14.00024414px;font-variant:normal;writing-mode:lr-tb;fill:#000000;fill-opacity:1;fill-rule:nonzero;stroke:none;font-family:Nimbus Roman No9 L;-inkscape-font-specification:NimbusRomNo9L-Regu">frame</tspan><tspan
         id="tspan188"
         sodipodi:role="line"
         y="-356.80078"
         x="468.5 472.99408 477.50217 483.49426 494.75046 500.75656 510.50073 517.24884 528.50507 535.25317 541.25928 545.75336 549.50543 553.25745 557.00952 566.75372 573.50183 580.26392 586.25604 594.5022 601.26428 608.01245"
         style="font-size:14.00024414px;font-variant:normal;writing-mode:lr-tb;fill:#000000;fill-opacity:1;fill-rule:nonzero;stroke:none;font-family:Nimbus Roman No9 L;-inkscape-font-specification:NimbusRomNo9L-Regu">frameNumber : NoneType</tspan><tspan
         id="tspan190"
         sodipodi:role="line"
         y="-341.80078"
         x="468.5 475.24811 479.00018 485.74829 491.75439 496.24847 501.49857 505.25064 509.00272 512.75476 519.50287 523.25494 529.24707"
         style="font-size:14.00024414px;font-variant:normal;writing-mode:lr-tb;fill:#000000;fill-opacity:1;fill-rule:nonzero;stroke:none;font-family:Nimbus Roman No9 L;-inkscape-font-specification:NimbusRomNo9L-Regu">others : dict</tspan><tspan
         id="tspan192"
         sodipodi:role="line"
         y="-326.80078"
         x="468.5 473.75009 477.50217 481.25421 487.24634 490.99838 494.75046 498.50253 508.2467 515.00879 521.75696 527.74902 536.00916 542.75732 549.50543"
         style="font-size:14.00024414px;font-variant:normal;writing-mode:lr-tb;fill:#000000;fill-opacity:1;fill-rule:nonzero;stroke:none;font-family:Nimbus Roman No9 L;-inkscape-font-specification:NimbusRomNo9L-Regu">slic : NoneType</tspan><tspan
         id="tspan194"
         sodipodi:role="line"
         y="-311.80078"
         x="468.5 473.75009 480.4982 487.24634 493.25244 497.74652 504.50864 508.2467 515.00879 521.00092 524.75299 534.51117 538.24921 545.01135 551.75946 556.25354 560.00562 563.75769 570.5058 581.76196 585.51404 589.25214 593.00415 602.76233 609.51044 616.25854 622.26465 630.5108 637.25891 644.00708 650.01318 653.76526 657.51727 665.00745 671.76953 678.51764 684.50977 689.01782 695.76599 699.51801 706.26611 712.27222 716.01031"
         style="font-size:14.00024414px;font-variant:normal;writing-mode:lr-tb;fill:#000000;fill-opacity:1;fill-rule:nonzero;stroke:none;font-family:Nimbus Roman No9 L;-inkscape-font-specification:NimbusRomNo9L-Regu">superpixelAlgorithm : NoneType, Superpixels</tspan><tspan
         id="tspan196"
         sodipodi:role="line"
         y="-296.80078"
         x="468.5 473.75009 480.4982 487.24634 493.25244 497.74652 504.50864 508.2467 515.00879 521.00092 524.75299 532.25708 536.75122 542.75732 553.99951 560.00562 569.76379 576.5119 587.75409 594.5022 600.5083 605.01636 608.75446 612.50653 616.25854 620.01062 626.75879"
         style="font-size:14.00024414px;font-variant:normal;writing-mode:lr-tb;fill:#000000;fill-opacity:1;fill-rule:nonzero;stroke:none;font-family:Nimbus Roman No9 L;-inkscape-font-specification:NimbusRomNo9L-Regu">superpixelFrameNumber : int</tspan><tspan
         id="tspan198"
         sodipodi:role="line"
         y="-281.80078"
         x="468.5 472.25208 478.24417 489.50037 496.24847 503.75262 508.2467 514.25281 525.50897"
         style="font-size:14.00024414px;font-variant:normal;writing-mode:lr-tb;fill:#000000;fill-opacity:1;fill-rule:nonzero;stroke:none;font-family:Nimbus Roman No9 L;-inkscape-font-specification:NimbusRomNo9L-Regu">tempFrame</tspan><tspan
         id="tspan200"
         sodipodi:role="line"
         y="-266.80078"
         x="468.5 472.25208 478.24417 489.50037 496.24847 503.75262 508.2467 514.25281 525.50897 531.5011 541.25928 548.00739 559.24957 566.01172 572.00378"
         style="font-size:14.00024414px;font-variant:normal;writing-mode:lr-tb;fill:#000000;fill-opacity:1;fill-rule:nonzero;stroke:none;font-family:Nimbus Roman No9 L;-inkscape-font-specification:NimbusRomNo9L-Regu">tempFrameNumber</tspan><tspan
         id="tspan202"
         sodipodi:role="line"
         y="-251.80077"
         x="468.5 472.25208 478.24417 489.50037 496.24847 504.50864 510.50073 515.00879 518.74689 531.5011 537.5072 542.75732 549.50543 553.25745 557.00952 560.7616 568.25171 572.75983 578.75195 590.00812"
         style="font-size:14.00024414px;font-variant:normal;writing-mode:lr-tb;fill:#000000;fill-opacity:1;fill-rule:nonzero;stroke:none;font-family:Nimbus Roman No9 L;-inkscape-font-specification:NimbusRomNo9L-Regu">tempLeftMask : Frame</tspan><tspan
         id="tspan204"
         sodipodi:role="line"
         y="-236.80077"
         x="468.5 472.25208 478.24417 489.50037 496.24847 506.00665 511.99875 518.00488 521.75696 528.50507 535.25317 541.25928 548.00739 560.7616 566.75372 572.00378 578.75195 582.50397 586.25604 590.00812 597.51227 602.00635 608.01245 619.25464"
         style="font-size:14.00024414px;font-variant:normal;writing-mode:lr-tb;fill:#000000;fill-opacity:1;fill-rule:nonzero;stroke:none;font-family:Nimbus Roman No9 L;-inkscape-font-specification:NimbusRomNo9L-Regu">tempOccludedMask : Frame</tspan><tspan
         id="tspan206"
         sodipodi:role="line"
         y="-221.80077"
         x="468.5 472.25208 478.24417 489.50037 496.24847 505.25064 509.00272 515.75085 522.49896 526.25098 539.00525 545.01135 550.26141 557.00952 560.7616 564.49969 568.25171 575.75586 580.26392 586.25604 597.51227"
         style="font-size:14.00024414px;font-variant:normal;writing-mode:lr-tb;fill:#000000;fill-opacity:1;fill-rule:nonzero;stroke:none;font-family:Nimbus Roman No9 L;-inkscape-font-specification:NimbusRomNo9L-Regu">tempRightMask : Frame</tspan><tspan
         id="tspan208"
         sodipodi:role="line"
         y="-206.80077"
         x="468.5 472.25208 478.24417 489.50037 496.24847 503.75262 510.50073 514.25281 518.00488 521.75696 525.50897 529.26105 532.99915 539.76123 546.50934 553.25745"
         style="font-size:14.00024414px;font-variant:normal;writing-mode:lr-tb;fill:#000000;fill-opacity:1;fill-rule:nonzero;stroke:none;font-family:Nimbus Roman No9 L;-inkscape-font-specification:NimbusRomNo9L-Regu">tempSplit : bool</tspan><tspan
         id="tspan210"
         sodipodi:role="line"
         y="-191.80077"
         x="468.5 472.25208 478.24417 489.50037 496.24847 503.75262 510.50073 517.24884 523.25494 527.74902 534.51117 538.24921 545.01135 551.00342 554.75549 564.49969 568.25171 575.01385 581.76196 586.25604 590.00812 593.76019 600.5083 611.76453 615.51654 619.25464 623.00671 632.76489 639.513 646.26111 652.26721 660.51337 667.26147 674.00958 680.01569 683.76776 687.51984 695.00995 701.77209 708.5202 714.51227 719.02039 725.76849 729.52051 736.26868 742.27478 746.01282"
         style="font-size:14.00024414px;font-variant:normal;writing-mode:lr-tb;fill:#000000;fill-opacity:1;fill-rule:nonzero;stroke:none;font-family:Nimbus Roman No9 L;-inkscape-font-specification:NimbusRomNo9L-Regu">tempSuperpixelAlgorithm : NoneType, Superpixels</tspan><tspan
         id="tspan212"
         sodipodi:role="line"
         y="-176.80077"
         x="468.5 472.25208 478.24417 489.50037 496.24847 503.75262 510.50073 517.24884 523.25494 527.74902 534.51117 538.24921 545.01135 551.00342 554.75549 562.25964 566.75372 572.75983 584.00201 590.00812 599.75232 606.5144 617.75659 624.5047 630.5108 635.00488 638.75696 642.50903 646.26111 650.01318 656.76129"
         style="font-size:14.00024414px;font-variant:normal;writing-mode:lr-tb;fill:#000000;fill-opacity:1;fill-rule:nonzero;stroke:none;font-family:Nimbus Roman No9 L;-inkscape-font-specification:NimbusRomNo9L-Regu">tempSuperpixelFrameNumber : int</tspan><tspan
         id="tspan214"
         sodipodi:role="line"
         y="-161.80077"
         x="468.5 472.25208 479.00018 483.49426 489.50037 494.75046 501.49857 508.2467 511.99875 518.74689 524.75299 529.24707 532.99915 536.75122 540.50323 548.00739 552.50146 559.24957 566.01172 572.00378 578.75195 582.50397 586.25604 590.00812 593.76019 600.5083 608.75446 615.50256 620.01062 626.01672 631.26685 638.01495 644.76306 648.51514 655.26324 661.26935"
         style="font-size:14.00024414px;font-variant:normal;writing-mode:lr-tb;fill:#000000;fill-opacity:1;fill-rule:nonzero;stroke:none;font-family:Nimbus Roman No9 L;-inkscape-font-specification:NimbusRomNo9L-Regu">thresholder : ProbabilityThresholder</tspan></text>
<path
       inkscape:connector-curvature="0"
       id="path216"
       style="fill:none;stroke:#000000;stroke-width:1;stroke-linecap:butt;stroke-linejoin:round;stroke-miterlimit:10;stroke-opacity:1;stroke-dasharray:none"
       d="m 460.5,154 299,0" /><text
       id="text218"
       transform="scale(1,-1)"
       x="468.5"
       y="-138.80078"><tspan
         id="tspan220"
         sodipodi:role="line"
         y="-138.80078"
         x="468.5 475.24811 481.25421 485.00629 494.75046 500.75656 506.74866 510.50073 517.24884 522.49896 526.25098 532.99915 539.76123 547.25134 551.00342 557.00952 560.7616 566.75372 571.26178"
         style="font-size:14.00024414px;font-variant:normal;writing-mode:lr-tb;fill:#000000;fill-opacity:1;fill-rule:nonzero;stroke:none;font-family:Nimbus Roman No9 L;-inkscape-font-specification:NimbusRomNo9L-Regu">getOcclusionState()</tspan><tspan
         id="tspan222"
         sodipodi:role="line"
         y="-123.80078"
         x="468.5 475.24811 481.99625 487.24634 490.99838 495.50647 499.25854 505.25064 509.75873 515.75085 519.50287 523.25494 530.00305 536.75122 541.25928"
         style="font-size:14.00024414px;font-variant:normal;writing-mode:lr-tb;fill:#000000;fill-opacity:1;fill-rule:nonzero;stroke:none;font-family:Nimbus Roman No9 L;-inkscape-font-specification:NimbusRomNo9L-Regu">postIteration()</tspan><tspan
         id="tspan224"
         sodipodi:role="line"
         y="-108.80077"
         x="468.5 473.75009 479.7562 483.49426 490.99838 497.74652 504.50864 510.50073 515.00879 521.75696 525.50897 532.25708 538.24921 542.00128 551.75946 555.51154 562.25964 569.00775 573.50183 577.25391 581.00598 587.75409 599.01025 603.50433"
         style="font-size:14.00024414px;font-variant:normal;writing-mode:lr-tb;fill:#000000;fill-opacity:1;fill-rule:nonzero;stroke:none;font-family:Nimbus Roman No9 L;-inkscape-font-specification:NimbusRomNo9L-Regu">setSuperpixelAlgorithm()</tspan><tspan
         id="tspan226"
         sodipodi:role="line"
         y="-93.800774"
         x="468.5 473.75009 480.4982 484.25027 488.00235 491.75439 501.49857 507.50467 513.49677 517.24884 523.99695 529.24707 532.99915 539.76123 546.50934 551.00342"
         style="font-size:14.00024414px;font-variant:normal;writing-mode:lr-tb;fill:#000000;fill-opacity:1;fill-rule:nonzero;stroke:none;font-family:Nimbus Roman No9 L;-inkscape-font-specification:NimbusRomNo9L-Regu">splitOcclusion()</tspan><tspan
         id="tspan228"
         sodipodi:role="line"
         y="-78.800774"
         x="468.5 472.25208 476.74615 482.75226 486.5043 493.25244 502.99661 509.00272 515.00879 519.50287 525.50897 530.75909 534.51117 542.00128 548.74939 555.51154 561.5036 566.01172 572.75983 576.5119 583.26001 589.25214 593.00415 600.5083 604.26038 611.00848 617.75659 623.7627 628.25677 632.76489"
         style="font-size:14.00024414px;font-variant:normal;writing-mode:lr-tb;fill:#000000;fill-opacity:1;fill-rule:nonzero;stroke:none;font-family:Nimbus Roman No9 L;-inkscape-font-specification:NimbusRomNo9L-Regu">trainNearestSuperpixelFinder()</tspan><tspan
         id="tspan230"
         sodipodi:role="line"
         y="-63.800774"
         x="468.5 472.25208 479.00018 485.74829 491.75439 499.25854 506.00665 512.75476 518.74689 523.25494 530.00305 533.75513 540.50323 546.50934 550.26141 560.00562 563.75769 570.5058 577.25391 581.76196 585.51404 589.25214 596.01422 607.25641 611.76453"
         style="font-size:14.00024414px;font-variant:normal;writing-mode:lr-tb;fill:#000000;fill-opacity:1;fill-rule:nonzero;stroke:none;font-family:Nimbus Roman No9 L;-inkscape-font-specification:NimbusRomNo9L-Regu">tuneSuperpixelAlgorithm()</tspan><tspan
         id="tspan232"
         sodipodi:role="line"
         y="-48.800774"
         x="468.5 475.24811 481.99625 488.74435 494.75046 498.50253 504.50864 511.99875 515.75085 521.75696 525.50897 531.5011 536.00916"
         style="font-size:14.00024414px;font-variant:normal;writing-mode:lr-tb;fill:#000000;fill-opacity:1;fill-rule:nonzero;stroke:none;font-family:Nimbus Roman No9 L;-inkscape-font-specification:NimbusRomNo9L-Regu">updateState()</tspan></text>
<g
       id="g3387"
       transform="translate(-359.0671,-321.57778)"><path
         d="m 528,601 164,0 0,-100 -164,0 0,100 z"
         style="fill:none;stroke:#000000;stroke-width:1;stroke-linecap:butt;stroke-linejoin:round;stroke-miterlimit:10;stroke-opacity:1;stroke-dasharray:none"
         id="path42"
         inkscape:connector-curvature="0" /><text
         y="-585.80078"
         x="536"
         transform="scale(1,-1)"
         id="text44"><tspan
           style="font-size:14.00024414px;font-variant:normal;writing-mode:lr-tb;fill:#000000;fill-opacity:1;fill-rule:nonzero;stroke:none;font-family:Nimbus Roman No9 L;-inkscape-font-specification:NimbusRomNo9L-Regu"
           x="536 545.74414 552.50629 557.75641 561.50842 566.0025 572.00861 578.00073 581.75281 591.49695 597.50305 603.50916 607.26123 614.00934 619.25946 623.01154 629.75964 636.50775 646.25195 652.25806 656.01007 662.0022 668.0083 671.76038 678.50848"
           y="-585.80078"
           sodipodi:role="line"
           id="tspan46">AbstractOcclusionDetector</tspan></text>
<path
         d="m 528,578 164,0"
         style="fill:none;stroke:#000000;stroke-width:1;stroke-linecap:butt;stroke-linejoin:round;stroke-miterlimit:10;stroke-opacity:1;stroke-dasharray:none"
         id="path48"
         inkscape:connector-curvature="0" /><path
         d="m 528,554 164,0"
         style="fill:none;stroke:#000000;stroke-width:1;stroke-linecap:butt;stroke-linejoin:round;stroke-miterlimit:10;stroke-opacity:1;stroke-dasharray:none"
         id="path50"
         inkscape:connector-curvature="0" /><text
         y="-538.80078"
         x="536"
         transform="scale(1,-1)"
         id="text52"><tspan
           style="font-size:14.00024414px;font-variant:normal;writing-mode:lr-tb;fill:#000000;fill-opacity:1;fill-rule:nonzero;stroke:none;font-family:Nimbus Roman No9 L;-inkscape-font-specification:NimbusRomNo9L-Regu"
           x="536 542.74811 548.75421 552.50629 562.25049 568.25659 574.24866 578.00073 584.74884 589.99896 593.75098 600.49915 607.26123 614.75134 618.50342 624.50952 628.2616 634.25372 638.76178"
           y="-538.80078"
           sodipodi:role="line"
           id="tspan54">getOcclusionState()</tspan><tspan
           style="font-size:14.00024414px;font-variant:normal;writing-mode:lr-tb;fill:#000000;fill-opacity:1;fill-rule:nonzero;stroke:none;font-family:Nimbus Roman No9 L;-inkscape-font-specification:NimbusRomNo9L-Regu"
           x="536 541.25012 547.99823 551.75024 555.50232 559.25439 568.9986 575.0047 580.99677 584.74884 591.49695 596.74707 600.49915 607.26123 614.00934 618.50342"
           y="-523.80078"
           sodipodi:role="line"
           id="tspan56">splitOcclusion()</tspan><tspan
           style="font-size:14.00024414px;font-variant:normal;writing-mode:lr-tb;fill:#000000;fill-opacity:1;fill-rule:nonzero;stroke:none;font-family:Nimbus Roman No9 L;-inkscape-font-specification:NimbusRomNo9L-Regu"
           x="536 542.74811 546.50018 551.75024 558.49841 564.50452 568.25659 572.00861 578.00073 584.00684 588.50092"
           y="-508.80078"
           sodipodi:role="line"
           id="tspan58">visualize()</tspan></text>
</g><g
       id="g3398"
       transform="matrix(0.04804028,0.9996302,-1.7659784,0.02719315,1180.7122,-392.44642)"><path
         d="m 610,425.109 c 0,23.688 0,46.336 0,65.684"
         style="fill:none;stroke:#000000;stroke-width:1;stroke-linecap:butt;stroke-linejoin:round;stroke-miterlimit:10;stroke-opacity:1;stroke-dasharray:none"
         id="path234"
         inkscape:connector-curvature="0" /></g><path
       inkscape:connector-curvature="0"
       id="path236"
       style="fill:none;stroke:#000000;stroke-width:1;stroke-linecap:butt;stroke-linejoin:round;stroke-miterlimit:10;stroke-opacity:1;stroke-dasharray:none"
       d="m 342.61393,227.17817 -9.90113,3.77064 10.09148,3.22677 -0.19035,-6.99741 z" /></g></svg>