<?xml version="1.0" encoding="UTF-8" standalone="no"?>
<!-- Created with Inkscape (http://www.inkscape.org/) -->

<svg
   xmlns:dc="http://purl.org/dc/elements/1.1/"
   xmlns:cc="http://creativecommons.org/ns#"
   xmlns:rdf="http://www.w3.org/1999/02/22-rdf-syntax-ns#"
   xmlns:svg="http://www.w3.org/2000/svg"
   xmlns="http://www.w3.org/2000/svg"
   xmlns:sodipodi="http://sodipodi.sourceforge.net/DTD/sodipodi-0.dtd"
   xmlns:inkscape="http://www.inkscape.org/namespaces/inkscape"
   id="svg2"
   version="1.1"
   inkscape:version="0.48.4 r9939"
   width="628.75"
   height="431.875"
   xml:space="preserve"
   sodipodi:docname="identificationStructure.svg"
   inkscape:export-filename="/home/abetan16/Desktop/egovision/egovision/docs/source/_images/handIdentification/identificationStructure.png"
   inkscape:export-xdpi="194"
   inkscape:export-ydpi="194"><metadata
     id="metadata8"><rdf:RDF><cc:Work
         rdf:about=""><dc:format>image/svg+xml</dc:format><dc:type
           rdf:resource="http://purl.org/dc/dcmitype/StillImage" /><dc:title></dc:title></cc:Work></rdf:RDF></metadata><defs
     id="defs6" /><sodipodi:namedview
     pagecolor="#ffffff"
     bordercolor="#666666"
     borderopacity="1"
     objecttolerance="10"
     gridtolerance="10"
     guidetolerance="10"
     inkscape:pageopacity="0"
     inkscape:pageshadow="2"
     inkscape:window-width="1680"
     inkscape:window-height="1026"
     id="namedview4"
     showgrid="false"
     fit-margin-top="20"
     fit-margin-left="20"
     fit-margin-right="20"
     fit-margin-bottom="20"
     inkscape:zoom="0.90769231"
     inkscape:cx="471.94675"
     inkscape:cy="27.503243"
     inkscape:window-x="0"
     inkscape:window-y="24"
     inkscape:window-maximized="1"
     inkscape:current-layer="g10" /><g
     id="g10"
     inkscape:groupmode="layer"
     inkscape:label="classes_No_Name"
     transform="matrix(1.25,0,0,-1.25,-29.375,1010)"><path
       inkscape:connector-curvature="0"
       id="path16"
       style="fill:none;stroke:#000000;stroke-width:1;stroke-linecap:butt;stroke-linejoin:round;stroke-miterlimit:10;stroke-opacity:1;stroke-dasharray:none"
       d="m 160.5,791.5 171,0 0,-129 -171,0 0,129 z" /><text
       id="text18"
       transform="scale(1,-1)"
       x="168.5"
       y="-776.30078"><tspan
         id="tspan20"
         sodipodi:role="line"
         y="-776.30078"
         x="168.5 178.24417 185.00629 190.25638 194.00844 198.50252 204.50864 210.50073 214.25279 218.74687 225.509 231.5011 238.24921 242.00128 245.75336 250.26141 253.99948 260.00558 266.01169 269.74976 273.50183 280.26395 287.01205 299.75229 306.5144 313.26251 319.25464"
         style="font-size:14.00024414px;font-variant:normal;writing-mode:lr-tb;fill:#000000;fill-opacity:1;fill-rule:nonzero;stroke:none;font-family:Nimbus Roman No9 L;-inkscape-font-specification:NimbusRomNo9L-Regu">AbstractIdentificationModel</tspan></text>
<path
       inkscape:connector-curvature="0"
       id="path22"
       style="fill:none;stroke:#000000;stroke-width:1;stroke-linecap:butt;stroke-linejoin:round;stroke-miterlimit:10;stroke-opacity:1;stroke-dasharray:none"
       d="m 160.5,768.5 171,0" /><text
       id="text24"
       transform="scale(1,-1)"
       x="168.5"
       y="-753.30078"><tspan
         id="tspan26"
         sodipodi:role="line"
         y="-753.30078"
         x="168.5 174.5061 181.25423 192.49641 199.25853 203.75261 209.75873 215.00882 220.25891 223.99696 230.75909 237.5072 251.00345 254.75549 261.50363 265.25568"
         style="font-size:14.00024414px;font-variant:normal;writing-mode:lr-tb;fill:#000000;fill-opacity:1;fill-rule:nonzero;stroke:none;font-family:Nimbus Roman No9 L;-inkscape-font-specification:NimbusRomNo9L-Regu">compressionWidth</tspan><tspan
         id="tspan28"
         sodipodi:role="line"
         y="-738.30078"
         x="168.5 172.25206 178.24417 182.75224 186.50432 194.00844 200.75656 207.50468 213.49678 217.24884 221.00092 227.74902"
         style="font-size:14.00024414px;font-variant:normal;writing-mode:lr-tb;fill:#000000;fill-opacity:1;fill-rule:nonzero;stroke:none;font-family:Nimbus Roman No9 L;-inkscape-font-specification:NimbusRomNo9L-Regu">leftFunction</tspan><tspan
         id="tspan30"
         sodipodi:role="line"
         y="-723.30078"
         x="168.5 172.99408 176.74614 183.49426 187.24632 194.00844 201.49857 208.24669 215.00882 221.00092 224.75298 228.50505 235.25317"
         style="font-size:14.00024414px;font-variant:normal;writing-mode:lr-tb;fill:#000000;fill-opacity:1;fill-rule:nonzero;stroke:none;font-family:Nimbus Roman No9 L;-inkscape-font-specification:NimbusRomNo9L-Regu">rigthFunction</tspan></text>
<path
       inkscape:connector-curvature="0"
       id="path32"
       style="fill:none;stroke:#000000;stroke-width:1;stroke-linecap:butt;stroke-linejoin:round;stroke-miterlimit:10;stroke-opacity:1;stroke-dasharray:none"
       d="m 160.5,715.5 171,0" /><text
       id="text34"
       transform="scale(1,-1)"
       x="168.5"
       y="-700.30078"><tspan
         id="tspan36"
         sodipodi:role="line"
         y="-700.30078"
         x="168.5 172.99408 176.74614 180.49821 185.00629"
         style="font-size:14.00024414px;font-variant:normal;writing-mode:lr-tb;fill:#000000;fill-opacity:1;fill-rule:nonzero;stroke:none;font-family:Nimbus Roman No9 L;-inkscape-font-specification:NimbusRomNo9L-Regu">fit()</tspan><tspan
         id="tspan38"
         sodipodi:role="line"
         y="-685.30078"
         x="168.5 172.25206 179.00018 185.00629 191.75441 195.50647 199.25853 203.75261 210.50073 219.50288 226.25101 232.99911 236.75119 243.4993 250.26141 254.75549 260.00558 264.49966"
         style="font-size:14.00024414px;font-variant:normal;writing-mode:lr-tb;fill:#000000;fill-opacity:1;fill-rule:nonzero;stroke:none;font-family:Nimbus Roman No9 L;-inkscape-font-specification:NimbusRomNo9L-Regu">identifyContours()</tspan><tspan
         id="tspan40"
         sodipodi:role="line"
         y="-670.30078"
         x="168.5 175.24812 179.00018 184.25027 190.9984 197.0045 200.75656 204.50864 210.50073 216.50684 221.00092"
         style="font-size:14.00024414px;font-variant:normal;writing-mode:lr-tb;fill:#000000;fill-opacity:1;fill-rule:nonzero;stroke:none;font-family:Nimbus Roman No9 L;-inkscape-font-specification:NimbusRomNo9L-Regu">visualize()</tspan></text>
<path
       inkscape:connector-curvature="0"
       id="path60"
       style="fill:none;stroke:#000000;stroke-width:1;stroke-linecap:butt;stroke-linejoin:round;stroke-miterlimit:10;stroke-opacity:1;stroke-dasharray:none"
       d="m 40,623 278,0 0,-144 -278,0 0,144 z" /><text
       id="text62"
       transform="scale(1,-1)"
       x="106"
       y="-607.80078"><tspan
         id="tspan64"
         sodipodi:role="line"
         y="-607.80078"
         x="106 115.74417 121.75027 126.25835 133.00647 138.99857 142.75064 147.25873 154.00684 159.99893 166.74706 170.49911 174.25119 178.75928 182.51132 188.50345 194.50955 198.2616 201.99966 208.76178 215.50992 228.26413 235.01225 241.76036 247.75247"
         style="font-size:14.00024414px;font-variant:normal;writing-mode:lr-tb;fill:#000000;fill-opacity:1;fill-rule:nonzero;stroke:none;font-family:Nimbus Roman No9 L;-inkscape-font-specification:NimbusRomNo9L-Regu">KernelIdentificationModel</tspan></text>
<path
       inkscape:connector-curvature="0"
       id="path66"
       style="fill:none;stroke:#000000;stroke-width:1;stroke-linecap:butt;stroke-linejoin:round;stroke-miterlimit:10;stroke-opacity:1;stroke-dasharray:none"
       d="m 40,600 278,0" /><text
       id="text68"
       transform="scale(1,-1)"
       x="48"
       y="-584.80078"><tspan
         id="tspan70"
         sodipodi:role="line"
         y="-584.80078"
         x="48 51.752064 57.744171 62.252251 66.004318 73.508446 80.256561 87.004684 92.99678 96.748848 100.50092 107.24903 114.01115 117.74921 121.50128 125.25335 132.00146 138.00757 144.75568 150.00578 155.25586 159.00793 165.01404 171.76215 178.51027 185.25839 192.00652"
         style="font-size:14.00024414px;font-variant:normal;writing-mode:lr-tb;fill:#000000;fill-opacity:1;fill-rule:nonzero;stroke:none;font-family:Nimbus Roman No9 L;-inkscape-font-specification:NimbusRomNo9L-Regu">leftFunction : gaussian_kde</tspan><tspan
         id="tspan72"
         sodipodi:role="line"
         y="-569.80078"
         x="48 51.752064 57.744171 62.252251 66.004318 78.758537 84.750641 90.756744 96.006836 102.75496 107.24903 113.25513 124.51133 130.50345 137.25156 141.00363 146.25372 150.00578 153.75784 157.50992 161.26196 165.01404 170.26413"
         style="font-size:14.00024414px;font-variant:normal;writing-mode:lr-tb;fill:#000000;fill-opacity:1;fill-rule:nonzero;stroke:none;font-family:Nimbus Roman No9 L;-inkscape-font-specification:NimbusRomNo9L-Regu">leftMeasurements : list</tspan><tspan
         id="tspan74"
         sodipodi:role="line"
         y="-554.80078"
         x="48 54.748116 59.256195 66.004318 72.752434 78.758537 85.506653 89.25872 92.99678 96.748848 100.50092 107.24903 115.50918 122.25729 126.75137 132.75748 138.00757 144.75568 151.50381 155.25586 162.004 168.0101 172.50418 176.25624 180.0083 183.76036 191.2645 195.75858 202.5067 209.25481 215.26091 222.00903 225.76109 229.51317 233.26523 237.01729 243.76541 252.01155 258.75967 263.26776 269.25986 274.50995 281.25806 288.0202 291.77225 298.52039 304.51248"
         style="font-size:14.00024414px;font-variant:normal;writing-mode:lr-tb;fill:#000000;fill-opacity:1;fill-rule:nonzero;stroke:none;font-family:Nimbus Roman No9 L;-inkscape-font-specification:NimbusRomNo9L-Regu">probabilityThresholder : ProbabilityThresholder</tspan><tspan
         id="tspan76"
         sodipodi:role="line"
         y="-539.80078"
         x="48 52.49408 56.246143 62.994263 69.756378 73.508446 80.998573 87.746689 94.508812 100.50092 104.25298 108.00505 114.75317 121.50128 125.25335 129.0054 132.75748 139.50558 145.51169 152.25983 157.50992 162.76001 166.51205 172.50418 179.25229 186.0144 192.76253 199.51064"
         style="font-size:14.00024414px;font-variant:normal;writing-mode:lr-tb;fill:#000000;fill-opacity:1;fill-rule:nonzero;stroke:none;font-family:Nimbus Roman No9 L;-inkscape-font-specification:NimbusRomNo9L-Regu">rightFunction : gaussian_kde</tspan><tspan
         id="tspan78"
         sodipodi:role="line"
         y="-524.80078"
         x="48 52.49408 56.246143 62.994263 69.756378 73.508446 86.248665 92.254776 98.246872 103.49696 110.25909 114.75317 120.75927 132.00146 138.00757 144.75568 148.50775 153.75784 157.50992 161.26196 165.01404 168.75211 172.50418 177.75426"
         style="font-size:14.00024414px;font-variant:normal;writing-mode:lr-tb;fill:#000000;fill-opacity:1;fill-rule:nonzero;stroke:none;font-family:Nimbus Roman No9 L;-inkscape-font-specification:NimbusRomNo9L-Regu">rightMeasurements : list</tspan><tspan
         id="tspan80"
         sodipodi:role="line"
         y="-509.80078"
         x="48 51.752064 58.500183 62.994263 69.000366 74.250458 80.998573 87.746689 91.498756 98.246872 101.99894 105.75101 109.50307 114.01115 117.74921 124.51133 130.50345"
         style="font-size:14.00024414px;font-variant:normal;writing-mode:lr-tb;fill:#000000;fill-opacity:1;fill-rule:nonzero;stroke:none;font-family:Nimbus Roman No9 L;-inkscape-font-specification:NimbusRomNo9L-Regu">threshold : float</tspan></text>
<path
       inkscape:connector-curvature="0"
       id="path82"
       style="fill:none;stroke:#000000;stroke-width:1;stroke-linecap:butt;stroke-linejoin:round;stroke-miterlimit:10;stroke-opacity:1;stroke-dasharray:none"
       d="m 40,502 278,0" /><text
       id="text84"
       transform="scale(1,-1)"
       x="48"
       y="-486.80078"><tspan
         id="tspan86"
         sodipodi:role="line"
         y="-486.80078"
         x="48 52.49408 56.246143 59.998207 64.506287"
         style="font-size:14.00024414px;font-variant:normal;writing-mode:lr-tb;fill:#000000;fill-opacity:1;fill-rule:nonzero;stroke:none;font-family:Nimbus Roman No9 L;-inkscape-font-specification:NimbusRomNo9L-Regu">fit()</tspan></text>
<path
       inkscape:connector-curvature="0"
       id="path88"
       style="fill:none;stroke:#000000;stroke-width:1;stroke-linecap:butt;stroke-linejoin:round;stroke-miterlimit:10;stroke-opacity:1;stroke-dasharray:none"
       d="m 206.348,623.023 c 3.812,9.899 7.734,20.082 11.558,30.016" /><path
       inkscape:connector-curvature="0"
       id="path90"
       style="fill:none;stroke:#000000;stroke-width:1;stroke-linecap:butt;stroke-linejoin:round;stroke-miterlimit:10;stroke-opacity:1;stroke-dasharray:none"
       d="m 214.676,654.395 6.859,8.074 -0.324,-10.59 -6.535,2.516 z" /><path
       inkscape:connector-curvature="0"
       id="path112"
       style="fill:none;stroke:#000000;stroke-width:1;stroke-linecap:butt;stroke-linejoin:round;stroke-miterlimit:10;stroke-opacity:1;stroke-dasharray:none"
       d="m 336,615.5 174,0 0,-129 -174,0 0,129 z" /><text
       id="text114"
       transform="scale(1,-1)"
       x="344"
       y="-600.30078"><tspan
         id="tspan116"
         sodipodi:role="line"
         y="-600.30078"
         x="344 356.75421 362.74634 369.50845 379.25262 385.25873 388.9968 392.74884 397.25693 404.00504 410.01117 416.75928 420.51132 424.24939 428.75748 432.50955 438.50165 444.50775 448.25983 452.01187 458.76001 465.50812 478.26233 485.01044 491.75858 497.76468"
         style="font-size:14.00024414px;font-variant:normal;writing-mode:lr-tb;fill:#000000;fill-opacity:1;fill-rule:nonzero;stroke:none;font-family:Nimbus Roman No9 L;-inkscape-font-specification:NimbusRomNo9L-Regu">MaxwellIdentificationModel</tspan></text>
<path
       inkscape:connector-curvature="0"
       id="path118"
       style="fill:none;stroke:#000000;stroke-width:1;stroke-linecap:butt;stroke-linejoin:round;stroke-miterlimit:10;stroke-opacity:1;stroke-dasharray:none"
       d="m 336,592.5 174,0" /><text
       id="text120"
       transform="scale(1,-1)"
       x="344"
       y="-577.30078"><tspan
         id="tspan122"
         sodipodi:role="line"
         y="-577.30078"
         x="344 347.75208 353.74417 358.25226 362.0043 369.50845 376.25656 383.00467 388.9968 392.74884 396.50092 403.24902"
         style="font-size:14.00024414px;font-variant:normal;writing-mode:lr-tb;fill:#000000;fill-opacity:1;fill-rule:nonzero;stroke:none;font-family:Nimbus Roman No9 L;-inkscape-font-specification:NimbusRomNo9L-Regu">leftFunction</tspan><tspan
         id="tspan124"
         sodipodi:role="line"
         y="-562.30078"
         x="344 347.75208 353.74417 358.25226 362.0043 374.75854 380.75064 386.75674 392.00684 398.75494 403.24902 409.25513 420.51132 426.50345 433.25156 437.00363 442.25372 446.0058 449.75784 453.50992 457.26196 461.01404 466.26413"
         style="font-size:14.00024414px;font-variant:normal;writing-mode:lr-tb;fill:#000000;fill-opacity:1;fill-rule:nonzero;stroke:none;font-family:Nimbus Roman No9 L;-inkscape-font-specification:NimbusRomNo9L-Regu">leftMeasurements : list</tspan><tspan
         id="tspan126"
         sodipodi:role="line"
         y="-547.30078"
         x="344 348.49408 352.24615 358.99426 365.75638 369.50845 376.99857 383.7467 390.50882 396.50092 400.25299 404.00504 410.75317"
         style="font-size:14.00024414px;font-variant:normal;writing-mode:lr-tb;fill:#000000;fill-opacity:1;fill-rule:nonzero;stroke:none;font-family:Nimbus Roman No9 L;-inkscape-font-specification:NimbusRomNo9L-Regu">rightFunction</tspan><tspan
         id="tspan128"
         sodipodi:role="line"
         y="-532.30078"
         x="344 348.49408 352.24615 358.99426 365.75638 369.50845 382.24866 388.25476 394.24689 399.49698 406.25909 410.75317 416.75928 428.00146 434.00757 440.75568 444.50775 449.75784 453.50992 457.26196 461.01404 464.75211 468.50418 473.75427"
         style="font-size:14.00024414px;font-variant:normal;writing-mode:lr-tb;fill:#000000;fill-opacity:1;fill-rule:nonzero;stroke:none;font-family:Nimbus Roman No9 L;-inkscape-font-specification:NimbusRomNo9L-Regu">rightMeasurements : list</tspan></text>
<path
       inkscape:connector-curvature="0"
       id="path130"
       style="fill:none;stroke:#000000;stroke-width:1;stroke-linecap:butt;stroke-linejoin:round;stroke-miterlimit:10;stroke-opacity:1;stroke-dasharray:none"
       d="m 336,524.5 174,0" /><text
       id="text132"
       transform="scale(1,-1)"
       x="344"
       y="-509.30078"><tspan
         id="tspan134"
         sodipodi:role="line"
         y="-509.30078"
         x="344 348.49408 352.24615 355.9982 360.50629"
         style="font-size:14.00024414px;font-variant:normal;writing-mode:lr-tb;fill:#000000;fill-opacity:1;fill-rule:nonzero;stroke:none;font-family:Nimbus Roman No9 L;-inkscape-font-specification:NimbusRomNo9L-Regu">fit()</tspan><tspan
         id="tspan136"
         sodipodi:role="line"
         y="-494.30078"
         x="344 349.25009 355.2562 358.99426 366.49838 372.50449 376.99857 383.00467 394.24689 400.25299 404.00504 410.01117 414.50522 419.75531 424.24939"
         style="font-size:14.00024414px;font-variant:normal;writing-mode:lr-tb;fill:#000000;fill-opacity:1;fill-rule:nonzero;stroke:none;font-family:Nimbus Roman No9 L;-inkscape-font-specification:NimbusRomNo9L-Regu">setParameters()</tspan></text>
<path
       inkscape:connector-curvature="0"
       id="path170"
       style="fill:none;stroke:#000000;stroke-width:1;stroke-linecap:butt;stroke-linejoin:round;stroke-miterlimit:10;stroke-opacity:1;stroke-dasharray:none"
       d="m 358.348,615.555 c -13.082,12.863 -26.914,26.461 -40.235,39.554" /><path
       inkscape:connector-curvature="0"
       id="path172"
       style="fill:none;stroke:#000000;stroke-width:1;stroke-linecap:butt;stroke-linejoin:round;stroke-miterlimit:10;stroke-opacity:1;stroke-dasharray:none"
       d="m 315.449,652.816 -4.676,9.508 9.586,-4.515 -4.91,-4.993 z" /></g></svg>